<?xml version="1.0" standalone="no"?><!DOCTYPE svg PUBLIC "-//W3C//DTD SVG 1.1//EN" "http://www.w3.org/Graphics/SVG/1.1/DTD/svg11.dtd"><svg t="1571882110492" class="icon" viewBox="0 0 1024 1024" version="1.1" xmlns="http://www.w3.org/2000/svg" p-id="829" width="200" height="200" xmlns:xlink="http://www.w3.org/1999/xlink"><defs><style type="text/css"></style></defs><path d="M214.809 423.865l-1.184-4.736-1.184-5.92-1.184-3.552v-15.392l1.184-4.736 2.368-5.92 1.184-7.104 7.104-14.209 4.736-7.104v-9.473l1.184-7.104 2.368-7.104 1.184-8.288 2.368-3.552 3.552-7.104 2.368-2.368v-17.761l1.184-9.473 2.368-10.657 2.368-13.025 3.552-13.025 2.368-8.288 2.368-7.104 3.552-8.288 3.552-7.104 3.552-9.472 3.552-8.288 4.736-8.288 5.92-9.472 3.552-4.736 2.368-3.552 7.104-9.472 5.92-9.472 7.104-9.472 16.577-18.945 9.472-8.288 10.657-10.657 7.104-5.92 8.288-7.104 9.472-5.92 8.288-5.92 9.472-4.736 9.472-3.552 11.841-5.92 31.969-10.657 23.681-4.736 13.025-2.368 23.681-2.368 13.025-1.184h37.889l13.025 1.184 13.025 2.368 13.025 1.184 11.841 2.368 13.025 3.552 11.841 2.368 13.025 3.552 23.681 9.472 13.025 4.736 21.312 11.841 10.657 7.104 9.472 5.92 4.736 4.736 4.736 2.368 8.288 7.104 14.209 14.209 7.104 8.288 5.92 7.104 7.104 8.288 9.473 16.577 5.92 8.288 3.552 8.288 8.288 16.577 3.552 8.288 4.736 16.577 3.552 8.288 1.184 5.92 2.368 8.288 3.552 14.209 3.552 13.025 1.184 13.025 1.184 9.472 2.368 15.392 2.368 4.736 4.736 7.104 3.552 5.92 2.368 5.92 7.104 11.841 2.368 8.288 2.368 7.104 1.184 8.288 1.184 3.552v18.945l-1.184 5.92-2.368 9.472-2.368 4.736-2.368 5.92v1.184l1.184 2.368 2.368 3.552 11.841 16.577 8.288 13.025 4.736 8.288 5.92 8.288 4.736 10.657 5.92 10.657 13.025 26.048 7.104 16.577 2.368 8.288 3.552 8.288 2.368 7.104 2.368 8.288 2.368 14.209 2.368 15.392 1.184 14.209 1.184 18.945-1.184 7.104-1.184 10.657-2.368 10.657-3.552 9.472v4.736l-4.736 7.104-2.368 4.736-4.736 4.736-2.368 3.552-2.368 2.368-3.552 1.184-4.736 2.368h-3.552l-2.368-1.184-3.552-2.368-4.736-2.368-8.288-8.288-4.736-5.92-7.104-11.841-2.368-4.736-5.92-10.657-4.736-10.657h-1.184l-2.368 2.368-1.184 2.368-2.368 3.552-3.552 9.473-5.92 14.209-7.104 17.761-4.736 8.288-11.841 18.945-7.104 10.657-3.552 4.736-14.209 14.209 2.368 2.368 4.736 3.552 21.312 9.472 9.472 4.736 24.864 17.761 3.552 3.552 2.368 3.552 3.552 3.552 2.368 4.736 3.552 10.657v10.657l-2.368 4.736v2.368l-2.368 2.368-3.552 5.92-3.552 3.552-2.368 3.552-2.368 2.368-5.92 3.552-5.92 4.736-7.104 3.552-7.104 2.368-8.288 3.552-4.736 1.184-3.552 1.184-10.657 2.368-18.945 4.736-11.841 1.184-10.657 1.184-11.841 1.184h-35.521l-13.025-1.184-11.841-1.184-26.048-2.368-13.025-2.368-13.025-3.552-13.025-2.368-13.025-3.552-13.025-4.736-13.025-3.552-7.104-2.368-5.92-2.368-7.104-2.368h-10.657l-13.025-1.184h-5.92l-8.288-1.184-4.736 4.736-7.104 4.736-9.472 4.736-10.657 5.92-5.92 2.368-7.104 2.368-14.209 5.92-16.577 4.736-11.841 2.368h-7.104l-7.104 1.184-8.288 1.184h-69.858l-20.129-2.368-10.657-1.184-10.657-2.368-9.472-1.184-10.657-2.368-18.945-4.736-8.288-3.552-7.104-2.368-8.288-3.552-5.92-4.736-7.104-4.736-7.104-7.104-1.184-2.368-2.368-2.368-1.184-3.552-2.368-5.92v-2.368l-1.184-3.552v-3.552l1.184-3.552-1.184-3.552 1.184-3.552v-10.657l2.368-3.552 1.184-4.736 3.552-7.104 2.368-2.368 3.552-4.736 3.552-2.368 2.368-2.368 3.552-1.184 3.552-2.368 3.552-1.184 9.472-4.736 4.736-1.184 11.841-2.368h5.92l7.104-1.184h2.368l1.184-1.184v-1.184l-1.184-1.184-3.552-2.368-9.472-7.104-14.209-11.841-7.104-7.104-8.288-9.472-8.288-10.657-3.552-4.736-4.736-5.92-7.104-14.209-4.736-7.104-2.368-7.104-10.657-24.864-2.368-10.657h-1.184v-1.184h-1.184l-1.184 1.184h-1.184l-1.184 1.184v2.368l-2.368 4.736-3.552 8.288-2.368 4.736-3.552 3.552-3.552 4.736-4.736 5.92-3.552 4.736-5.92 4.736-9.472 7.104-5.92 3.552-5.92 2.368-5.92 1.184-7.104 1.184h-1.184l-1.184-1.184-1.184-2.368-2.368-1.184-2.368-5.92-1.184-3.552-2.368-3.552-1.184-5.92v-4.736l-2.368-10.657-1.184-5.92v-21.312l1.184-15.392 3.552-24.864 2.368-8.288 4.736-18.945 7.104-18.945 9.472-18.945 5.92-9.472 5.92-10.657 7.104-8.288 5.92-10.657 5.92-7.104 7.104-8.288 16.577-16.577 5.92-4.736 5.92-5.92 10.657-9.472 8.288-5.92z" p-id="830" fill="#bfbfbf"></path></svg>